<?xml version="1.0" encoding="UTF-8"?>
<svg id="Layer_1" xmlns="http://www.w3.org/2000/svg" version="1.1" viewBox="0 0 276.1 72.9">
  <!-- Generator: Adobe Illustrator 30.0.0, SVG Export Plug-In . SVG Version: 2.1.1 Build 123)  -->
  <defs>
    <style>
      .st0 {
        fill: #652766;
      }
    </style>
  </defs>
  <g>
    <path class="st0" d="M8.7,68.8h-3.6l-.7,2h-2.1l3.5-9.7h2.3l3.4,9.7h-2.2l-.6-2ZM8.1,67.1l-1.2-3.8-1.2,3.8h2.5Z"/>
    <path class="st0" d="M12.6,61.1h2v9.7h-2v-9.7Z"/>
    <path class="st0" d="M19.9,70.8v-9.8h1.7v9.8h-1.7Z"/>
    <path class="st0" d="M34.6,70.1c-.7.7-1.7,1-2.8,1s-2.5-.4-3.3-1.3c-.8-.9-1.2-2.1-1.2-3.7s.5-3,1.4-3.9c.8-.8,1.8-1.2,3-1.2s2.8.5,3.6,1.6c.4.6.6,1.2.7,1.8h-2c-.1-.5-.3-.8-.5-1.1-.4-.4-.9-.6-1.6-.6s-1.3.3-1.7.9c-.4.6-.6,1.4-.6,2.5s.2,1.9.7,2.4c.4.5,1,.8,1.7.8s1.3-.2,1.6-.7c.2-.2.4-.6.5-1.1h2c-.2,1.1-.6,1.9-1.3,2.6Z"/>
    <path class="st0" d="M45.3,61.1l-3.2,6.1v3.6h-2v-3.6l-3.4-6.1h2.4l2,4.2,1.9-4.2h2.3Z"/>
    <path class="st0" d="M50.9,70.8h-4.4v-9.7h4.7c1.2,0,2,.4,2.5,1,.3.4.4.9.4,1.5s-.1,1.1-.4,1.4c-.2.2-.4.4-.7.6.5.2.9.5,1.1.9.3.4.4.9.4,1.4s-.1,1.1-.4,1.5c-.2.3-.4.6-.7.8-.3.2-.7.4-1.1.5-.4,0-.9.1-1.4.1ZM51.9,64.7c.3-.2.4-.4.4-.8s-.2-.8-.5-.9c-.3-.1-.7-.2-1.2-.2h-2.1v2.1h2.4c.4,0,.8,0,1-.2ZM50.9,66.5h-2.4v2.6h2.4c.4,0,.8,0,1-.2.4-.2.6-.6.6-1.2s-.2-.9-.6-1c-.2-.1-.6-.2-1-.2Z"/>
    <path class="st0" d="M63,66.5h-4.7v2.5h5.4v1.7h-7.4v-9.7h7.1v1.7h-5.1v2.1h4.7v1.7Z"/>
    <path class="st0" d="M69.3,67h-2.1v3.8h-2v-9.7h4.8c.7,0,1.2,0,1.6.2.4.2.7.4.9.7.2.2.4.5.5.8s.2.6.2,1-.1.9-.3,1.4-.6.8-1.2.9c.4.2.8.4,1,.8.2.3.3.8.3,1.5v.7c0,.4,0,.7,0,.9,0,.2.2.4.4.6v.2h-2.2c0-.2-.1-.4-.1-.5,0-.3,0-.6,0-.8v-.9c0-.6-.1-1-.4-1.2-.2-.2-.6-.3-1.2-.3ZM70.6,65.2c.4-.2.6-.5.6-1.1s-.2-1-.6-1.2c-.2-.1-.5-.2-1-.2h-2.4v2.6h2.3c.5,0,.8,0,1-.2Z"/>
    <path class="st0" d="M78.4,70.8v-9.8h1.7v9.8h-1.7Z"/>
    <path class="st0" d="M89.7,69.4c.5,0,.9,0,1.2-.2.6-.2.8-.6.8-1.1s-.1-.6-.4-.7c-.3-.2-.7-.3-1.3-.5l-1-.2c-1-.2-1.7-.5-2.1-.7-.7-.4-1-1.1-1-2.1s.3-1.6.9-2.2c.6-.6,1.6-.9,2.8-.9s1.9.3,2.6.8,1.1,1.3,1.1,2.4h-1.9c0-.6-.3-1-.8-1.2-.3-.2-.7-.2-1.2-.2s-.9.1-1.3.3c-.3.2-.5.5-.5.9s.2.6.5.8c.2.1.6.2,1.3.4l1.7.4c.7.2,1.3.4,1.7.7.6.5.9,1.1.9,2s-.3,1.6-1,2.2c-.7.6-1.6.9-2.9.9s-2.3-.3-3-.9c-.7-.6-1.1-1.4-1.1-2.4h1.9c0,.4.2.8.4,1,.3.4.9.6,1.7.6Z"/>
    <path class="st0" d="M101,67v-6h2.1v6c0,1-.2,1.8-.5,2.4-.6,1.1-1.7,1.6-3.4,1.6s-2.8-.5-3.4-1.6c-.3-.6-.5-1.4-.5-2.4v-6h2.1v6c0,.7,0,1.2.2,1.5.2.5.8.8,1.6.8s1.4-.3,1.6-.8c.2-.3.2-.8.2-1.5Z"/>
    <path class="st0" d="M109.1,67.3h-2.1v3.5h-2v-9.7h4.2c1,0,1.8.2,2.3.8.6.5.9,1.3.9,2.3s-.3,2-.9,2.4c-.6.5-1.4.7-2.5.7ZM110,65.3c.3-.2.4-.6.4-1.1s-.1-.9-.4-1.1c-.3-.2-.6-.3-1.1-.3h-1.9v2.9h1.9c.5,0,.9-.1,1.1-.3Z"/>
    <path class="st0" d="M118.1,67.3h-2.1v3.5h-2v-9.7h4.2c1,0,1.8.2,2.3.8.6.5.9,1.3.9,2.3s-.3,2-.9,2.4c-.6.5-1.4.7-2.5.7ZM119,65.3c.3-.2.4-.6.4-1.1s-.1-.9-.4-1.1c-.3-.2-.6-.3-1.1-.3h-1.9v2.9h1.9c.5,0,.9-.1,1.1-.3Z"/>
    <path class="st0" d="M127.2,71.1c-1.4,0-2.4-.4-3.2-1.1-1-.9-1.5-2.3-1.5-4s.5-3.1,1.5-4c.7-.8,1.8-1.1,3.2-1.1s2.4.4,3.2,1.1c1,.9,1.5,2.2,1.5,4s-.5,3.1-1.5,4c-.7.8-1.8,1.1-3.2,1.1ZM129.1,68.5c.5-.6.7-1.4.7-2.5s-.2-1.9-.7-2.5c-.5-.6-1.1-.9-1.9-.9s-1.4.3-1.9.9c-.5.6-.7,1.4-.7,2.5s.2,1.9.7,2.5c.5.6,1.1.9,1.9.9s1.4-.3,1.9-.9Z"/>
    <path class="st0" d="M137.5,67h-2.1v3.8h-2v-9.7h4.8c.7,0,1.2,0,1.6.2.4.2.7.4.9.7.2.2.4.5.5.8s.2.6.2,1-.1.9-.3,1.4-.6.8-1.2.9c.4.2.8.4,1,.8.2.3.3.8.3,1.5v.7c0,.4,0,.7,0,.9,0,.2.2.4.4.6v.2h-2.2c0-.2-.1-.4-.1-.5,0-.3,0-.6,0-.8v-.9c0-.6-.1-1-.4-1.2-.2-.2-.6-.3-1.2-.3ZM138.8,65.2c.4-.2.6-.5.6-1.1s-.2-1-.6-1.2c-.2-.1-.5-.2-1-.2h-2.4v2.6h2.3c.5,0,.8,0,1-.2Z"/>
    <path class="st0" d="M150.2,61.1v1.7h-2.9v8h-2v-8h-2.9v-1.7h7.9Z"/>
  </g>
  <g>
    <path class="st0" d="M2.5,2.5h4v9.9L13,2.5h4.9l-7.8,10.8,9.7,13.3h-5.1L6.5,14.3v12.3H2.5V2.5Z"/>
    <path class="st0" d="M21.1,2.5h13.2v3.8h-9.2v6.2h8.4v3.5h-8.4v6.7h9.2v3.8h-13.2V2.5Z"/>
    <path class="st0" d="M43.3,19.9L34.6,2.5h4.4l6.4,13.3,6.3-13.3h4.3l-8.6,17.4v6.7h-4v-6.7Z"/>
    <path class="st0" d="M57.2,2.5h6.2c5.4,0,8.1,2,8.1,6.4s-1.1,4-2.9,4.8c2.7.7,4.2,2.9,4.2,5.6,0,4.7-3,7.3-9.6,7.3h-6V2.5ZM63.5,12.4c2.7,0,4.2-.9,4.2-3.2s-1.4-3.3-4.2-3.3h-2.5v6.5h2.5ZM63.1,22.9c3.9,0,5.6-.9,5.6-3.6s-1.8-3.7-5.3-3.7h-2.5v7.3h2.1Z"/>
    <path class="st0" d="M86.6,26.6l-2.8-5.9c-.8.1-1.6.2-2.5.2h-1.8v5.7h-4V2.5h5.3c7.6,0,10.3,4.4,10.3,9.2s-1.2,5.9-3.8,7.6l4,7.3h-4.8ZM81.4,17c3.8,0,5.8-2.2,5.8-5.3s-2.1-5.3-5.8-5.3h-1.9v10.6h1.9Z"/>
    <path class="st0" d="M94,2.5h4v24.1h-4V2.5Z"/>
    <path class="st0" d="M101.5,2.5h4.6c9.1,0,13.1,5.5,13.1,12s-4,12.1-13.1,12.1h-4.6V2.5ZM106.5,22.6c5.9,0,8.7-3.5,8.7-8.1s-2.8-8-8.7-8h-1v16.1h1Z"/>
    <path class="st0" d="M120.9,14.5c0-6.7,5.2-12.5,12.5-12.5s10.6,4,12,9.2h-4.6c-1-3-3.9-5.2-7.4-5.2-5,0-8.6,3.8-8.6,8.5s3.5,8.5,8.5,8.5,6.8-2.3,7.7-5.6h-9.3v-3.5h14c.4,6.9-5,13.1-12.4,13.1s-12.5-5.8-12.5-12.5Z"/>
    <path class="st0" d="M148.6,2.5h13.2v3.8h-9.2v6.2h8.4v3.5h-8.4v6.7h9.2v3.8h-13.2V2.5Z"/>
  </g>
  <g>
    <path class="st0" d="M2.4,31.1h4v24.1H2.4v-24.1Z"/>
    <path class="st0" d="M13.7,34.9h-5.3v-3.8h14.5v3.8h-5.3v20.3h-4v-20.3Z"/>
    <path class="st0" d="M31.7,47.4h3.9c0,2.5,1.6,4.5,4.4,4.5s4.2-1.5,4.2-3.7-2.1-3.2-5-4.2c-3.8-1.3-6.4-3.1-6.4-7s3-6.5,7.2-6.5,7.3,3,7.4,7.5h-3.9c0-2.3-1.2-3.8-3.5-3.8s-3.2,1.2-3.2,2.9,1.7,2.7,3.9,3.5c3.9,1.3,7.6,2.6,7.6,7.7s-3.5,7.3-8.2,7.3-8.3-3.4-8.4-8.2Z"/>
    <path class="st0" d="M62,55.6c-7.3,0-12.5-5.8-12.5-12.5s5.2-12.5,12.5-12.5,12.5,5.8,12.5,12.5-5.2,12.5-12.5,12.5ZM62,34.6c-4.9,0-8.5,3.8-8.5,8.5s3.7,8.5,8.5,8.5,8.5-3.8,8.5-8.5-3.7-8.5-8.5-8.5Z"/>
    <path class="st0" d="M77.2,31.1h4v20.3h8v3.8h-12v-24.1Z"/>
    <path class="st0" d="M90,46v-14.9h4v15c0,3.1,1.2,5.6,4.6,5.6s4.6-2.5,4.6-5.6v-15h4v14.9c0,5.6-3.1,9.6-8.6,9.6s-8.6-3.9-8.6-9.6Z"/>
    <path class="st0" d="M114.3,34.9h-5.3v-3.8h14.5v3.8h-5.3v20.3h-4v-20.3Z"/>
    <path class="st0" d="M125.7,31.1h4v24.1h-4v-24.1Z"/>
    <path class="st0" d="M144.8,55.6c-7.3,0-12.5-5.8-12.5-12.5s5.2-12.5,12.5-12.5,12.5,5.8,12.5,12.5-5.2,12.5-12.5,12.5ZM144.8,34.6c-4.9,0-8.5,3.8-8.5,8.5s3.7,8.5,8.5,8.5,8.5-3.8,8.5-8.5-3.7-8.5-8.5-8.5Z"/>
    <path class="st0" d="M160,31.1h4.1l9.7,16.8v-16.8h4v24.1h-4l-9.8-16.9v16.9h-4v-24.1Z"/>
    <path class="st0" d="M180.2,47.4h3.9c0,2.5,1.6,4.5,4.4,4.5s4.2-1.5,4.2-3.7-2.1-3.2-5-4.2c-3.8-1.3-6.4-3.1-6.4-7s3-6.5,7.2-6.5,7.3,3,7.4,7.5h-3.9c0-2.3-1.2-3.8-3.5-3.8s-3.2,1.2-3.2,2.9,1.7,2.7,3.9,3.5c3.9,1.3,7.6,2.6,7.6,7.7s-3.5,7.3-8.2,7.3-8.3-3.4-8.4-8.2Z"/>
  </g>
  <polygon class="st0" points="240.9 2.5 274.7 2.5 240.8 36.3 274.7 70.7 241 70.7 206.6 36.3 240.9 2.5"/>
  <polygon class="st0" points="206.6 2.5 206.6 24.2 228.3 2.5 206.6 2.5"/>
  <polygon class="st0" points="253.1 36.4 268.4 51.7 268.5 21 253.1 36.4"/>
  <polygon class="st0" points="206.5 70.7 228.2 70.7 206.5 49 206.5 70.7"/>
</svg>