<?xml version="1.0" encoding="UTF-8"?>
<svg id="Layer_1" xmlns="http://www.w3.org/2000/svg" version="1.1" viewBox="0 0 262.2 59.5">
  <!-- White wordmark + chevron, colour accents kept (purple #652766 swapped for #fff) -->
  <defs>
    <style>
      .st0 {
        fill: #ffffff;
      }

      .st1 {
        fill: #f39200;
      }

      .st2 {
        fill: #036497;
      }

      .st3 {
        fill: #95c11f;
      }
    </style>
  </defs>
  <g>
    <path class="st0" d="M2.6,2h4v9.9L13.1,2h4.9l-7.8,10.8,9.7,13.3h-5.1L6.6,13.8v12.3H2.6V2Z"/>
    <path class="st0" d="M21.2,2h13.2v3.8h-9.2v6.2h8.4v3.5h-8.4v6.7h9.2v3.8h-13.2V2Z"/>
    <path class="st0" d="M43.4,19.4L34.7,2h4.4l6.4,13.3,6.3-13.3h4.3l-8.6,17.4v6.7h-4v-6.7Z"/>
    <path class="st0" d="M57.3,2h6.2c5.4,0,8.1,2,8.1,6.4s-1.1,4-2.9,4.8c2.7.7,4.2,2.9,4.2,5.6,0,4.7-3,7.3-9.6,7.3h-6V2ZM63.6,11.9c2.7,0,4.2-.9,4.2-3.2s-1.4-3.3-4.2-3.3h-2.5v6.5h2.5ZM63.2,22.4c3.9,0,5.6-.9,5.6-3.6s-1.8-3.7-5.3-3.7h-2.5v7.3h2.1Z"/>
    <path class="st0" d="M86.7,26.1l-2.8-5.9c-.8.1-1.6.2-2.5.2h-1.8v5.7h-4V2h5.3c7.6,0,10.3,4.4,10.3,9.2s-1.2,5.9-3.8,7.6l4,7.3h-4.8ZM81.6,16.5c3.8,0,5.8-2.2,5.8-5.3s-2.1-5.3-5.8-5.3h-1.9v10.6h1.9Z"/>
    <path class="st0" d="M94.1,2h4v24.1h-4V2Z"/>
    <path class="st0" d="M101.6,2h4.6c9.1,0,13.1,5.5,13.1,12s-4,12.1-13.1,12.1h-4.6V2ZM106.6,22c5.9,0,8.7-3.5,8.7-8.1s-2.8-8-8.7-8h-1v16.1h1Z"/>
    <path class="st0" d="M121,14c0-6.7,5.2-12.5,12.5-12.5s10.6,4,12,9.2h-4.6c-1-3-3.9-5.2-7.4-5.2-5,0-8.6,3.8-8.6,8.5s3.5,8.5,8.5,8.5,6.8-2.3,7.7-5.6h-9.3v-3.5h14c.4,6.9-5,13.1-12.4,13.1s-12.5-5.8-12.5-12.5Z"/>
    <path class="st0" d="M148.7,2h13.2v3.8h-9.2v6.2h8.4v3.5h-8.4v6.7h9.2v3.8h-13.2V2Z"/>
  </g>
  <g>
    <path class="st0" d="M2.5,30.6h4v24.1H2.5v-24.1Z"/>
    <path class="st0" d="M13.8,34.4h-5.3v-3.8h14.5v3.8h-5.3v20.3h-4v-20.3Z"/>
    <path class="st0" d="M31.8,46.9h3.9c0,2.5,1.6,4.5,4.4,4.5s4.2-1.5,4.2-3.7-2.1-3.2-5-4.2c-3.8-1.3-6.4-3.1-6.4-7s3-6.5,7.2-6.5,7.3,3,7.4,7.5h-3.9c0-2.3-1.2-3.8-3.5-3.8s-3.2,1.2-3.2,2.9,1.7,2.7,3.9,3.5c3.9,1.3,7.6,2.6,7.6,7.7s-3.5,7.3-8.2,7.3-8.3-3.4-8.4-8.2Z"/>
    <path class="st0" d="M62.1,55.1c-7.3,0-12.5-5.8-12.5-12.5s5.2-12.5,12.5-12.5,12.5,5.8,12.5,12.5-5.2,12.5-12.5,12.5ZM62.1,34.1c-4.9,0-8.5,3.8-8.5,8.5s3.7,8.5,8.5,8.5,8.5-3.8,8.5-8.5-3.7-8.5-8.5-8.5Z"/>
    <path class="st0" d="M77.3,30.6h4v20.3h8v3.8h-12v-24.1Z"/>
    <path class="st0" d="M90.1,45.5v-14.9h4v15c0,3.1,1.2,5.6,4.6,5.6s4.6-2.5,4.6-5.6v-15h4v14.9c0,5.6-3.1,9.6-8.6,9.6s-8.6-3.9-8.6-9.6Z"/>
    <path class="st0" d="M114.4,34.4h-5.3v-3.8h14.5v3.8h-5.3v20.3h-4v-20.3Z"/>
    <path class="st0" d="M125.8,30.6h4v24.1h-4v-24.1Z"/>
    <path class="st0" d="M144.9,55.1c-7.3,0-12.5-5.8-12.5-12.5s5.2-12.5,12.5-12.5,12.5,5.8,12.5,12.5-5.2,12.5-12.5,12.5ZM144.9,34.1c-4.9,0-8.5,3.8-8.5,8.5s3.7,8.5,8.5,8.5,8.5-3.8,8.5-8.5-3.7-8.5-8.5-8.5Z"/>
    <path class="st0" d="M160.1,30.6h4.1l9.7,16.8v-16.8h4v24.1h-4l-9.8-16.9v16.9h-4v-24.1Z"/>
    <path class="st0" d="M180.3,46.9h3.9c0,2.5,1.6,4.5,4.4,4.5s4.2-1.5,4.2-3.7-2.1-3.2-5-4.2c-3.8-1.3-6.4-3.1-6.4-7s3-6.5,7.2-6.5,7.3,3,7.4,7.5h-3.9c0-2.3-1.2-3.8-3.5-3.8s-3.2,1.2-3.2,2.9,1.7,2.7,3.9,3.5c3.9,1.3,7.6,2.6,7.6,7.7s-3.5,7.3-8.2,7.3-8.3-3.4-8.4-8.2Z"/>
  </g>
  <polygon class="st0" points="233.2 2 259.3 2 233.1 28.1 259.3 54.7 233.3 54.7 206.7 28.1 233.2 2"/>
  <polygon class="st1" points="206.7 2 206.7 18.7 223.5 2 206.7 2"/>
  <polygon class="st2" points="242.7 28.2 254.5 40 254.5 16.3 242.7 28.2"/>
  <polygon class="st3" points="206.7 54.7 223.4 54.7 206.7 37.9 206.7 54.7"/>
</svg>
